<?xml version="1.0" standalone="no"?>
<!DOCTYPE svg PUBLIC "-//W3C//DTD SVG 20010904//EN"
 "http://www.w3.org/TR/2001/REC-SVG-20010904/DTD/svg10.dtd">
<svg version="1.0" xmlns="http://www.w3.org/2000/svg"
 width="461.000000pt" height="461.000000pt" viewBox="0 0 461.000000 461.000000"
 preserveAspectRatio="xMidYMid meet">
<metadata>
Created by potrace 1.14, written by Peter Selinger 2001-2017
</metadata>
<g transform="translate(0.000000,461.000000) scale(0.100000,-0.100000)"
fill="#000000" stroke="none">
<path d="M1944 3733 c8 -16 35 -63 60 -106 25 -43 46 -82 46 -87 0 -6 4 -10 9
-10 5 0 11 -8 14 -17 4 -10 21 -43 39 -74 18 -31 74 -127 123 -212 50 -86 92
-157 95 -157 5 0 58 85 86 135 26 50 288 502 300 520 8 11 14 23 14 27 0 5
-180 8 -400 8 l-401 0 15 -27z"/>
<path d="M2740 3432 c-30 -52 -67 -116 -81 -141 -14 -25 -63 -108 -108 -185
-44 -76 -81 -140 -81 -142 0 -2 -18 -33 -40 -69 l-40 -65 405 0 405 0 -22 38
c-12 20 -31 55 -43 77 -12 22 -68 119 -125 215 -56 96 -114 195 -128 219 -26
47 -83 145 -86 148 0 0 -26 -42 -56 -95z"/>
<path d="M1847 3499 c-8 -13 -90 -154 -182 -314 -92 -159 -176 -305 -187 -322
l-20 -33 406 0 406 0 -45 74 c-25 40 -45 76 -45 78 0 3 -25 48 -56 99 -55 92
-73 122 -119 204 -66 117 -128 221 -135 229 -4 4 -15 -2 -23 -15z"/>
<path d="M771 2447 c-23 -29 -110 -239 -176 -427 -38 -109 -163 -411 -174
-423 -6 -6 -81 148 -81 166 0 3 -8 22 -17 43 -9 22 -17 41 -18 44 -1 3 -8 21
-17 41 -9 20 -28 72 -43 115 -30 87 -109 287 -148 377 -22 48 -30 57 -52 57
-14 0 -28 -7 -31 -15 -3 -8 12 -56 34 -107 21 -51 63 -156 92 -233 65 -172
133 -345 195 -492 39 -95 51 -113 69 -113 23 0 66 26 66 40 0 5 13 37 29 72
27 59 94 227 225 568 31 80 60 151 64 158 9 13 83 -162 142 -331 30 -87 63
-172 85 -222 7 -16 35 -82 61 -145 58 -142 65 -152 105 -137 26 10 37 31 104
188 41 97 93 228 116 290 57 161 141 369 148 369 4 0 31 -62 60 -137 30 -76
60 -151 66 -168 7 -16 18 -48 25 -70 11 -35 123 -311 176 -432 10 -24 26 -43
34 -43 39 0 60 14 74 48 8 21 46 112 84 203 39 91 89 219 112 285 37 105 116
303 124 311 1 1 13 -23 26 -55 13 -31 31 -75 40 -97 20 -44 43 -106 91 -240
42 -118 165 -412 184 -442 14 -21 18 -22 46 -10 26 10 38 29 80 127 60 137
136 329 153 385 22 71 130 335 137 335 7 0 93 -214 141 -350 44 -126 189 -472
205 -491 16 -19 45 -15 68 10 18 21 132 291 194 461 47 127 143 370 147 370 4
0 107 -256 139 -348 46 -133 192 -484 208 -499 9 -9 18 -9 42 1 27 12 39 35
117 222 47 115 103 256 123 314 38 108 90 237 130 325 37 83 39 92 15 105 -17
9 -25 8 -40 -5 -23 -21 -89 -174 -170 -398 -55 -152 -174 -444 -185 -455 -8
-8 -119 261 -216 522 -46 125 -65 172 -115 283 -8 17 -14 35 -14 41 0 13 -26
23 -44 16 -23 -9 -93 -173 -221 -519 -20 -55 -45 -118 -54 -140 -10 -22 -33
-77 -52 -122 -19 -46 -36 -83 -39 -83 -7 0 -131 300 -174 420 -106 297 -176
449 -208 450 -25 0 -98 -157 -193 -420 -60 -169 -176 -450 -184 -450 -3 0 -26
49 -49 108 -24 59 -55 131 -68 160 -13 29 -24 56 -24 59 0 30 -193 509 -214
531 -31 32 -58 -11 -146 -233 -26 -66 -60 -156 -75 -200 -35 -99 -162 -406
-173 -417 -9 -9 -124 267 -213 507 -70 190 -137 342 -155 349 -25 10 -42 -5
-67 -57 -28 -60 -108 -262 -167 -422 -49 -135 -153 -385 -160 -385 -7 0 -129
298 -173 420 -49 136 -138 358 -162 404 -21 40 -47 53 -64 33z"/>
</g>
</svg>
